<svg width="285" height="102" viewBox="0 0 285 102" fill="none" xmlns="http://www.w3.org/2000/svg">
<rect x="234.462" y="5.78961" width="44.8164" height="44.8164" rx="2" fill="#2699DA"/>
<rect width="43.3507" height="1.3631" rx="0.681548" transform="matrix(1 0.000615333 0.00134372 -0.999999 235.399 7.15251)" fill="#A6A4F0" stroke="black" stroke-opacity="0.01" stroke-width="10"/>
<rect width="44.8195" height="4.56352" rx="2" transform="matrix(0.00233975 0.999997 0.999999 -0.00161137 234.462 5.79382)" fill="#00A3FF" stroke="black" stroke-opacity="0.01" stroke-width="10"/>
<rect width="44.6593" height="1.84792" rx="0.92396" transform="matrix(0.00233975 0.999997 0.999999 -0.00161137 277.395 5.79234)" fill="#136A9B" stroke="black" stroke-opacity="0.01" stroke-width="10"/>
<path d="M236.186 49.9466C235.895 50.2375 236.1 50.7355 236.512 50.7358L278.178 50.7614C278.335 50.7615 278.391 50.5541 278.256 50.4749V50.4749C278.221 50.4545 278.196 50.4212 278.185 50.3821L277.665 48.4384C277.431 47.564 276.638 46.9563 275.733 46.9569L239.849 46.9802C239.299 46.9805 238.773 47.2074 238.395 47.6075L236.186 49.9466V49.9466Z" fill="#2A26DA" stroke="black" stroke-opacity="0.01" stroke-width="10"/>
<rect x="142.825" y="5.78963" width="44.8164" height="44.8164" rx="2" fill="#2699DA"/>
<rect width="43.3507" height="1.3631" rx="0.681548" transform="matrix(1 0.000615333 0.00134372 -0.999999 143.761 7.15252)" fill="#A6A4F0" stroke="black" stroke-opacity="0.01" stroke-width="10"/>
<rect width="44.8195" height="4.56352" rx="2" transform="matrix(0.00233975 0.999997 0.999999 -0.00161137 142.825 5.79384)" fill="#00A3FF" stroke="black" stroke-opacity="0.01" stroke-width="10"/>
<rect width="44.6593" height="1.84792" rx="0.92396" transform="matrix(0.00233975 0.999997 0.999999 -0.00161137 185.757 5.79235)" fill="#136A9B" stroke="black" stroke-opacity="0.01" stroke-width="10"/>
<path d="M144.549 49.9466C144.257 50.2375 144.462 50.7355 144.874 50.7358L186.541 50.7614C186.697 50.7615 186.754 50.5541 186.618 50.475V50.475C186.583 50.4545 186.558 50.4212 186.548 50.3821L186.027 48.4385C185.793 47.564 185.001 46.9563 184.095 46.9569L148.212 46.9802C147.662 46.9806 147.136 47.2074 146.758 47.6075L144.549 49.9466V49.9466Z" fill="#2A26DA" stroke="black" stroke-opacity="0.01" stroke-width="10"/>
<rect x="51.1871" y="5.78963" width="44.8164" height="44.8164" rx="2" fill="#2699DA"/>
<rect width="43.3507" height="1.3631" rx="0.681548" transform="matrix(1 0.000615333 0.00134372 -0.999999 52.1238 7.15252)" fill="#A6A4F0" stroke="black" stroke-opacity="0.01" stroke-width="10"/>
<rect width="44.8195" height="4.56352" rx="2" transform="matrix(0.00233975 0.999997 0.999999 -0.00161137 51.1871 5.79384)" fill="#00A3FF" stroke="black" stroke-opacity="0.01" stroke-width="10"/>
<rect width="44.6593" height="1.84792" rx="0.92396" transform="matrix(0.00233975 0.999997 0.999999 -0.00161137 94.1198 5.79235)" fill="#136A9B" stroke="black" stroke-opacity="0.01" stroke-width="10"/>
<path d="M52.9111 49.9466C52.6195 50.2375 52.825 50.7355 53.2367 50.7358L94.9031 50.7614C95.06 50.7615 95.1164 50.5541 94.981 50.475V50.475C94.946 50.4545 94.9206 50.4212 94.9101 50.3821L94.3899 48.4385C94.1558 47.564 93.3634 46.9563 92.458 46.9569L56.5741 46.9802C56.0241 46.9806 55.4983 47.2074 55.1204 47.6075L52.9111 49.9466V49.9466Z" fill="#2A26DA" stroke="black" stroke-opacity="0.01" stroke-width="10"/>
<rect x="188.643" y="5.78963" width="44.8164" height="44.8164" rx="2" fill="#2699DA"/>
<rect width="43.3507" height="1.3631" rx="0.681548" transform="matrix(1 0.000615333 0.00134372 -0.999999 189.58 7.15252)" fill="#A6A4F0" stroke="black" stroke-opacity="0.01" stroke-width="10"/>
<rect width="44.8195" height="4.56352" rx="2" transform="matrix(0.00233975 0.999997 0.999999 -0.00161137 188.643 5.79384)" fill="#00A3FF" stroke="black" stroke-opacity="0.01" stroke-width="10"/>
<rect width="44.6593" height="1.84792" rx="0.92396" transform="matrix(0.00233975 0.999997 0.999999 -0.00161137 231.576 5.79235)" fill="#136A9B" stroke="black" stroke-opacity="0.01" stroke-width="10"/>
<path d="M190.367 49.9466C190.076 50.2375 190.281 50.7355 190.693 50.7358L232.359 50.7614C232.516 50.7615 232.573 50.5541 232.437 50.475V50.475C232.402 50.4545 232.377 50.4212 232.366 50.3821L231.846 48.4385C231.612 47.564 230.82 46.9563 229.914 46.9569L194.03 46.9802C193.48 46.9806 192.954 47.2074 192.577 47.6075L190.367 49.9466V49.9466Z" fill="#2A26DA" stroke="black" stroke-opacity="0.01" stroke-width="10"/>
<rect x="97.0059" y="5.78963" width="44.8164" height="44.8164" rx="2" fill="#2699DA"/>
<rect width="43.3507" height="1.3631" rx="0.681548" transform="matrix(1 0.000615333 0.00134372 -0.999999 97.9425 7.15252)" fill="#A6A4F0" stroke="black" stroke-opacity="0.01" stroke-width="10"/>
<rect width="44.8195" height="4.56352" rx="2" transform="matrix(0.00233975 0.999997 0.999999 -0.00161137 97.0059 5.79384)" fill="#00A3FF" stroke="black" stroke-opacity="0.01" stroke-width="10"/>
<rect width="44.6593" height="1.84792" rx="0.92396" transform="matrix(0.00233975 0.999997 0.999999 -0.00161137 139.938 5.79235)" fill="#136A9B" stroke="black" stroke-opacity="0.01" stroke-width="10"/>
<path d="M98.7298 49.9466C98.4382 50.2375 98.6437 50.7355 99.0554 50.7358L140.722 50.7614C140.879 50.7615 140.935 50.5541 140.8 50.475V50.475C140.765 50.4545 140.739 50.4212 140.729 50.3821L140.209 48.4385C139.975 47.564 139.182 46.9563 138.277 46.9569L102.393 46.9802C101.843 46.9806 101.317 47.2074 100.939 47.6075L98.7298 49.9466V49.9466Z" fill="#2A26DA" stroke="black" stroke-opacity="0.01" stroke-width="10"/>
<rect x="5.36841" y="5.78962" width="44.8164" height="44.8164" rx="2" fill="#2699DA"/>
<rect width="43.3507" height="1.3631" rx="0.681548" transform="matrix(1 0.000615333 0.00134372 -0.999999 6.30505 7.15251)" fill="#A6A4F0" stroke="black" stroke-opacity="0.01" stroke-width="10"/>
<rect width="44.8195" height="4.56352" rx="2" transform="matrix(0.00233975 0.999997 0.999999 -0.00161137 5.36841 5.79383)" fill="#00A3FF" stroke="black" stroke-opacity="0.01" stroke-width="10"/>
<rect width="44.6593" height="1.84792" rx="0.92396" transform="matrix(0.00233975 0.999997 0.999999 -0.00161137 48.301 5.79235)" fill="#136A9B" stroke="black" stroke-opacity="0.01" stroke-width="10"/>
<path d="M7.09249 49.9466C6.80088 50.2375 7.00637 50.7355 7.41812 50.7358L49.0845 50.7614C49.2414 50.7615 49.2978 50.5541 49.1624 50.4749V50.4749C49.1274 50.4545 49.102 50.4212 49.0915 50.3821L48.5713 48.4384C48.3372 47.564 47.5448 46.9563 46.6394 46.9569L10.7555 46.9802C10.2055 46.9806 9.67967 47.2074 9.30184 47.6075L7.09249 49.9466V49.9466Z" fill="#2A26DA" stroke="black" stroke-opacity="0.01" stroke-width="10"/>
<rect x="234.462" y="51.6986" width="44.8164" height="44.8164" rx="2" fill="#2699DA"/>
<rect width="43.3507" height="1.3631" rx="0.681548" transform="matrix(1 0.000615333 0.00134372 -0.999999 235.399 53.0615)" fill="#A6A4F0" stroke="black" stroke-opacity="0.01" stroke-width="10"/>
<rect width="44.8195" height="4.56352" rx="2" transform="matrix(0.00233975 0.999997 0.999999 -0.00161137 234.462 51.7028)" fill="#00A3FF" stroke="black" stroke-opacity="0.01" stroke-width="10"/>
<rect width="44.6593" height="1.84792" rx="0.92396" transform="matrix(0.00233975 0.999997 0.999999 -0.00161137 277.395 51.7013)" fill="#136A9B" stroke="black" stroke-opacity="0.01" stroke-width="10"/>
<path d="M236.186 95.8556C235.895 96.1465 236.1 96.6445 236.512 96.6448L278.178 96.6704C278.335 96.6705 278.391 96.4631 278.256 96.3839V96.3839C278.221 96.3635 278.196 96.3301 278.185 96.291L277.665 94.3474C277.431 93.473 276.638 92.8653 275.733 92.8659L239.849 92.8892C239.299 92.8895 238.773 93.1164 238.395 93.5164L236.186 95.8556V95.8556Z" fill="#2A26DA" stroke="black" stroke-opacity="0.01" stroke-width="10"/>
<rect x="142.825" y="51.6986" width="44.8164" height="44.8164" rx="2" fill="#2699DA"/>
<rect width="43.3507" height="1.3631" rx="0.681548" transform="matrix(1 0.000615333 0.00134372 -0.999999 143.761 53.0615)" fill="#A6A4F0" stroke="black" stroke-opacity="0.01" stroke-width="10"/>
<rect width="44.8195" height="4.56352" rx="2" transform="matrix(0.00233975 0.999997 0.999999 -0.00161137 142.825 51.7028)" fill="#00A3FF" stroke="black" stroke-opacity="0.01" stroke-width="10"/>
<rect width="44.6593" height="1.84792" rx="0.92396" transform="matrix(0.00233975 0.999997 0.999999 -0.00161137 185.757 51.7013)" fill="#136A9B" stroke="black" stroke-opacity="0.01" stroke-width="10"/>
<path d="M144.549 95.8556C144.257 96.1465 144.462 96.6445 144.874 96.6448L186.541 96.6704C186.697 96.6705 186.754 96.4631 186.618 96.3839V96.3839C186.583 96.3635 186.558 96.3301 186.548 96.291L186.027 94.3474C185.793 93.473 185.001 92.8653 184.095 92.8659L148.212 92.8892C147.662 92.8895 147.136 93.1164 146.758 93.5164L144.549 95.8556V95.8556Z" fill="#2A26DA" stroke="black" stroke-opacity="0.01" stroke-width="10"/>
<rect x="51.1871" y="51.6986" width="44.8164" height="44.8164" rx="2" fill="#2699DA"/>
<rect width="43.3507" height="1.3631" rx="0.681548" transform="matrix(1 0.000615333 0.00134372 -0.999999 52.1238 53.0615)" fill="#A6A4F0" stroke="black" stroke-opacity="0.01" stroke-width="10"/>
<rect width="44.8195" height="4.56352" rx="2" transform="matrix(0.00233975 0.999997 0.999999 -0.00161137 51.1871 51.7028)" fill="#00A3FF" stroke="black" stroke-opacity="0.01" stroke-width="10"/>
<rect width="44.6593" height="1.84792" rx="0.92396" transform="matrix(0.00233975 0.999997 0.999999 -0.00161137 94.1198 51.7013)" fill="#136A9B" stroke="black" stroke-opacity="0.01" stroke-width="10"/>
<path d="M52.9111 95.8556C52.6195 96.1465 52.825 96.6445 53.2367 96.6448L94.9031 96.6704C95.06 96.6705 95.1164 96.4631 94.981 96.3839V96.3839C94.946 96.3635 94.9206 96.3301 94.9101 96.291L94.3899 94.3474C94.1558 93.473 93.3634 92.8653 92.458 92.8659L56.5741 92.8892C56.0241 92.8895 55.4983 93.1164 55.1204 93.5164L52.9111 95.8556V95.8556Z" fill="#2A26DA" stroke="black" stroke-opacity="0.01" stroke-width="10"/>
<rect x="188.643" y="51.6986" width="44.8164" height="44.8164" rx="2" fill="#2699DA"/>
<rect width="43.3507" height="1.3631" rx="0.681548" transform="matrix(1 0.000615333 0.00134372 -0.999999 189.58 53.0615)" fill="#A6A4F0" stroke="black" stroke-opacity="0.01" stroke-width="10"/>
<rect width="44.8195" height="4.56352" rx="2" transform="matrix(0.00233975 0.999997 0.999999 -0.00161137 188.643 51.7028)" fill="#00A3FF" stroke="black" stroke-opacity="0.01" stroke-width="10"/>
<rect width="44.6593" height="1.84792" rx="0.92396" transform="matrix(0.00233975 0.999997 0.999999 -0.00161137 231.576 51.7013)" fill="#136A9B" stroke="black" stroke-opacity="0.01" stroke-width="10"/>
<path d="M190.367 95.8556C190.076 96.1465 190.281 96.6445 190.693 96.6448L232.359 96.6704C232.516 96.6705 232.573 96.4631 232.437 96.3839V96.3839C232.402 96.3635 232.377 96.3301 232.366 96.291L231.846 94.3474C231.612 93.473 230.82 92.8653 229.914 92.8659L194.03 92.8892C193.48 92.8895 192.954 93.1164 192.577 93.5164L190.367 95.8556V95.8556Z" fill="#2A26DA" stroke="black" stroke-opacity="0.01" stroke-width="10"/>
<rect x="97.0059" y="51.6986" width="44.8164" height="44.8164" rx="2" fill="#2699DA"/>
<rect width="43.3507" height="1.3631" rx="0.681548" transform="matrix(1 0.000615333 0.00134372 -0.999999 97.9425 53.0615)" fill="#A6A4F0" stroke="black" stroke-opacity="0.01" stroke-width="10"/>
<rect width="44.8195" height="4.56352" rx="2" transform="matrix(0.00233975 0.999997 0.999999 -0.00161137 97.0059 51.7028)" fill="#00A3FF" stroke="black" stroke-opacity="0.01" stroke-width="10"/>
<rect width="44.6593" height="1.84792" rx="0.92396" transform="matrix(0.00233975 0.999997 0.999999 -0.00161137 139.938 51.7013)" fill="#136A9B" stroke="black" stroke-opacity="0.01" stroke-width="10"/>
<path d="M98.7298 95.8556C98.4382 96.1465 98.6437 96.6445 99.0554 96.6448L140.722 96.6704C140.879 96.6705 140.935 96.4631 140.8 96.3839V96.3839C140.765 96.3635 140.739 96.3301 140.729 96.291L140.209 94.3474C139.975 93.473 139.182 92.8653 138.277 92.8659L102.393 92.8892C101.843 92.8895 101.317 93.1164 100.939 93.5164L98.7298 95.8556V95.8556Z" fill="#2A26DA" stroke="black" stroke-opacity="0.01" stroke-width="10"/>
<rect x="5.36841" y="51.6986" width="44.8164" height="44.8164" rx="2" fill="#2699DA"/>
<rect width="43.3507" height="1.3631" rx="0.681548" transform="matrix(1 0.000615333 0.00134372 -0.999999 6.30505 53.0615)" fill="#A6A4F0" stroke="black" stroke-opacity="0.01" stroke-width="10"/>
<rect width="44.8195" height="4.56352" rx="2" transform="matrix(0.00233975 0.999997 0.999999 -0.00161137 5.36841 51.7028)" fill="#00A3FF" stroke="black" stroke-opacity="0.01" stroke-width="10"/>
<rect width="44.6593" height="1.84792" rx="0.92396" transform="matrix(0.00233975 0.999997 0.999999 -0.00161137 48.301 51.7013)" fill="#136A9B" stroke="black" stroke-opacity="0.01" stroke-width="10"/>
<path d="M7.09249 95.8556C6.80088 96.1465 7.00637 96.6445 7.41812 96.6448L49.0845 96.6704C49.2414 96.6705 49.2978 96.4631 49.1624 96.3839V96.3839C49.1274 96.3635 49.102 96.3301 49.0915 96.291L48.5713 94.3474C48.3372 93.473 47.5448 92.8653 46.6394 92.8659L10.7555 92.8892C10.2055 92.8895 9.67967 93.1164 9.30184 93.5164L7.09249 95.8556V95.8556Z" fill="#2A26DA" stroke="black" stroke-opacity="0.01" stroke-width="10"/>
</svg>
