<svg width="281" height="245" viewBox="0 0 281 245" fill="none" xmlns="http://www.w3.org/2000/svg">
<rect x="0.103149" y="1.96008" width="278.526" height="242.861" rx="19" transform="rotate(-0.382501 0.103149 1.96008)" fill="#9C8585"/>
<path d="M204.987 215.606C204.986 215.339 205.601 215.118 206.362 215.11L252.761 214.672C253.522 214.664 254.139 214.874 254.14 215.141L254.146 216.253C254.147 216.52 253.531 216.742 252.771 216.749L206.372 217.188C205.611 217.195 204.994 216.985 204.992 216.718L204.987 215.606Z" fill="black"/>
<path d="M205.01 220.452C205.009 220.186 205.624 219.964 206.385 219.957L252.784 219.518C253.544 219.511 254.162 219.721 254.163 219.987L254.168 221.1C254.17 221.367 253.554 221.588 252.794 221.596L206.395 222.034C205.634 222.042 205.016 221.831 205.015 221.565L205.01 220.452Z" fill="black"/>
<path d="M205.033 225.299C205.032 225.033 205.647 224.811 206.408 224.804L252.807 224.365C253.567 224.358 254.185 224.568 254.186 224.834L254.191 225.947C254.193 226.213 253.577 226.435 252.816 226.442L206.417 226.881C205.657 226.888 205.039 226.678 205.038 226.412L205.033 225.299Z" fill="black"/>
<path d="M205.056 230.146C205.054 229.88 205.67 229.658 206.43 229.651L252.829 229.212C253.59 229.205 254.208 229.415 254.209 229.681L254.214 230.794C254.215 231.06 253.6 231.282 252.839 231.289L206.44 231.728C205.68 231.735 205.062 231.525 205.061 231.259L205.056 230.146Z" fill="black"/>
<path d="M204.896 196.218C204.894 195.952 205.51 195.73 206.271 195.723L252.67 195.284C253.43 195.277 254.048 195.487 254.049 195.753L254.054 196.866C254.055 197.133 253.44 197.354 252.679 197.361L206.28 197.8C205.52 197.807 204.902 197.597 204.901 197.331L204.896 196.218Z" fill="black"/>
<path d="M204.919 201.065C204.917 200.799 205.533 200.577 206.293 200.57L252.692 200.131C253.453 200.124 254.071 200.334 254.072 200.6L254.077 201.713C254.078 201.979 253.463 202.201 252.702 202.208L206.303 202.647C205.543 202.654 204.925 202.444 204.924 202.178L204.919 201.065Z" fill="black"/>
<path d="M204.941 205.912C204.94 205.646 205.556 205.424 206.316 205.417L252.715 204.978C253.476 204.971 254.093 205.181 254.095 205.447L254.1 206.56C254.101 206.826 253.486 207.048 252.725 207.055L206.326 207.494C205.566 207.501 204.948 207.291 204.947 207.025L204.941 205.912Z" fill="black"/>
<path d="M204.964 210.759C204.963 210.492 205.578 210.271 206.339 210.263L252.738 209.825C253.499 209.817 254.116 210.028 254.117 210.294L254.123 211.407C254.124 211.673 253.508 211.895 252.748 211.902L206.349 212.341C205.588 212.348 204.971 212.138 204.969 211.871L204.964 210.759Z" fill="black"/>
<circle cx="121.2" cy="15.1631" r="4.6704" transform="rotate(-0.382501 121.2 15.1631)" fill="#FF0000"/>
<circle cx="158.562" cy="14.9137" r="4.6704" transform="rotate(-0.382501 158.562 14.9137)" fill="#FF0000"/>
<circle cx="120.345" cy="14.3197" r="2.97208" transform="rotate(-0.382501 120.345 14.3197)" fill="#FF5757"/>
<circle cx="157.707" cy="14.0702" r="2.97208" transform="rotate(-0.382501 157.707 14.0702)" fill="#FF5757"/>
</svg>
