<svg width="806" height="655" viewBox="0 0 806 655" fill="none" xmlns="http://www.w3.org/2000/svg">
<g filter="url(#filter0_i_6_362)">
<rect x="2" y="2.64969" width="396.908" height="651.871" rx="8" transform="rotate(-0.382501 2 2.64969)" fill="#A81313"/>
</g>
<path d="M404.808 70.7539C404.775 66.3483 408.311 62.7454 412.716 62.6951L590.935 60.6607C593.051 60.6365 595.09 61.4517 596.606 62.9276L641.687 106.81C643.18 108.263 645.182 109.077 647.267 109.077L792.681 109.077C797.068 109.077 800.636 112.61 800.68 116.997L805.92 639.56C805.964 643.988 802.402 647.61 797.973 647.64L417.094 650.182C412.678 650.212 409.074 646.658 409.041 642.242L404.808 70.7539Z" fill="#A81313"/>
<path d="M7.5968 576.353C5.20847 576.364 3.27124 576.253 3.26988 576.105L3.187 567.051C3.18564 566.903 5.12067 566.773 7.50901 566.761L17.4885 566.713C19.8769 566.701 21.8141 566.812 21.8155 566.96L21.8983 576.014C21.8997 576.163 19.9647 576.293 17.5763 576.304L7.5968 576.353Z" fill="#641414"/>
<path d="M7.43713 558.914C5.0488 558.926 3.11157 558.815 3.11021 558.666L3.02734 549.612C3.02598 549.464 4.961 549.334 7.34934 549.323L17.3289 549.274C19.7172 549.262 21.6544 549.373 21.6558 549.522L21.7387 558.576C21.74 558.724 19.805 558.854 17.4167 558.865L7.43713 558.914Z" fill="#641414"/>
<path d="M7.27753 541.475C4.88919 541.487 2.95196 541.376 2.9506 541.228L2.86773 532.174C2.86637 532.025 4.8014 531.895 7.18973 531.884L17.1693 531.835C19.5576 531.824 21.4948 531.935 21.4962 532.083L21.5791 541.137C21.5804 541.285 19.6454 541.415 17.2571 541.427L7.27753 541.475Z" fill="#641414"/>
<path d="M6.68112 535.374C4.59133 535.384 2.89692 535.36 2.89655 535.319L2.87394 532.85C2.87357 532.81 4.56739 532.769 6.65718 532.758L15.3893 532.716C17.4791 532.706 19.1735 532.73 19.1738 532.771L19.1964 535.24C19.1968 535.281 17.503 535.322 15.4132 535.332L6.68112 535.374Z" fill="#A22A2A"/>
<path d="M6.84073 552.813C4.75094 552.823 3.05652 552.799 3.05615 552.758L3.03355 550.289C3.03318 550.248 4.72699 550.207 6.81679 550.197L15.5489 550.155C17.6387 550.144 19.3331 550.169 19.3335 550.21L19.3561 552.679C19.3564 552.719 17.6626 552.76 15.5728 552.77L6.84073 552.813Z" fill="#A22A2A"/>
<path d="M7.00028 570.252C4.91048 570.262 3.21607 570.237 3.2157 570.197L3.1931 567.728C3.19273 567.687 4.88654 567.646 6.97633 567.636L15.7084 567.593C17.7982 567.583 19.4926 567.608 19.493 567.648L19.5156 570.118C19.516 570.158 17.8222 570.199 15.7324 570.209L7.00028 570.252Z" fill="#A22A2A"/>
<path d="M788.922 214.568C786.534 214.579 784.596 214.46 784.595 214.302L784.506 204.627C784.505 204.468 786.44 204.33 788.828 204.319L798.808 204.27C801.196 204.258 803.133 204.378 803.135 204.536L803.223 214.211C803.225 214.37 801.29 214.508 798.902 214.519L788.922 214.568Z" fill="#641414"/>
<path d="M785.749 213.757C785.408 213.759 785.13 213.651 785.129 213.517L785.054 205.321C785.053 205.186 785.328 205.076 785.669 205.074L787.095 205.067C787.436 205.066 787.714 205.173 787.715 205.308L787.79 213.504C787.791 213.639 787.516 213.749 787.174 213.75L785.749 213.757Z" fill="#A22A2A"/>
<path d="M788.605 197.213C786.216 197.225 784.279 197.105 784.278 196.947L784.189 187.272C784.188 187.113 786.123 186.975 788.511 186.964L798.49 186.915C800.879 186.904 802.816 187.023 802.818 187.181L802.906 196.856C802.908 197.015 800.973 197.153 798.584 197.164L788.605 197.213Z" fill="#641414"/>
<path d="M785.432 196.403C785.091 196.404 784.813 196.297 784.812 196.162L784.737 187.966C784.736 187.831 785.011 187.721 785.352 187.719L786.778 187.713C787.119 187.711 787.397 187.818 787.398 187.953L787.473 196.149C787.474 196.284 787.198 196.394 786.857 196.396L785.432 196.403Z" fill="#A22A2A"/>
<path d="M788.605 179.908C786.216 179.919 784.279 179.8 784.278 179.642L784.189 169.967C784.188 169.808 786.123 169.67 788.511 169.659L798.49 169.61C800.879 169.599 802.816 169.718 802.818 169.876L802.906 179.551C802.908 179.71 800.973 179.848 798.584 179.859L788.605 179.908Z" fill="#641414"/>
<path d="M785.432 179.098C785.091 179.099 784.813 178.992 784.812 178.857L784.737 170.661C784.736 170.526 785.011 170.416 785.352 170.414L786.778 170.408C787.119 170.406 787.397 170.513 787.398 170.648L787.473 178.844C787.474 178.979 787.198 179.089 786.857 179.091L785.432 179.098Z" fill="#A22A2A"/>
<path d="M785.463 644.206C785.474 646.595 785.363 648.532 785.215 648.533L776.161 648.616C776.013 648.618 775.883 646.683 775.871 644.294L775.823 634.315C775.811 631.926 775.922 629.989 776.07 629.988L785.124 629.905C785.273 629.904 785.402 631.839 785.414 634.227L785.463 644.206Z" fill="#641414"/>
<path d="M768.024 644.366C768.035 646.754 767.925 648.692 767.776 648.693L758.722 648.776C758.574 648.777 758.444 646.842 758.433 644.454L758.384 634.474C758.372 632.086 758.483 630.149 758.632 630.147L767.685 630.065C767.834 630.063 767.964 631.998 767.975 634.387L768.024 644.366Z" fill="#641414"/>
<path d="M750.585 644.526C750.597 646.914 750.486 648.851 750.337 648.853L741.283 648.935C741.135 648.937 741.005 647.002 740.994 644.613L740.945 634.634C740.933 632.246 741.044 630.308 741.193 630.307L750.247 630.224C750.395 630.223 750.525 632.158 750.536 634.546L750.585 644.526Z" fill="#641414"/>
<path d="M744.484 645.122C744.494 647.212 744.47 648.906 744.429 648.907L741.96 648.929C741.92 648.93 741.878 647.236 741.868 645.146L741.826 636.414C741.816 634.324 741.84 632.63 741.881 632.629L744.35 632.607C744.39 632.606 744.431 634.3 744.442 636.39L744.484 645.122Z" fill="#A22A2A"/>
<path d="M761.923 644.963C761.933 647.052 761.908 648.747 761.868 648.747L759.399 648.77C759.358 648.77 759.317 647.076 759.307 644.986L759.265 636.254C759.254 634.165 759.279 632.47 759.319 632.47L761.789 632.447C761.829 632.447 761.87 634.141 761.88 636.23L761.923 644.963Z" fill="#A22A2A"/>
<path d="M779.362 644.803C779.372 646.893 779.347 648.587 779.307 648.587L776.838 648.61C776.797 648.61 776.756 646.917 776.746 644.827L776.703 636.095C776.693 634.005 776.718 632.311 776.758 632.31L779.227 632.288C779.268 632.287 779.309 633.981 779.319 636.071L779.362 644.803Z" fill="#A22A2A"/>
<path d="M6.73157 214.128C4.34323 214.139 2.406 214.028 2.40464 213.88L2.32177 204.826C2.32041 204.678 4.25544 204.548 6.64377 204.536L16.6233 204.488C19.0116 204.476 20.9489 204.587 20.9502 204.735L21.0331 213.789C21.0345 213.938 19.0994 214.067 16.7111 214.079L6.73157 214.128Z" fill="#641414"/>
<path d="M6.5719 196.689C4.18357 196.701 2.24634 196.59 2.24498 196.441L2.1621 187.387C2.16074 187.239 4.09577 187.109 6.48411 187.098L16.4636 187.049C18.852 187.037 20.7892 187.148 20.7906 187.297L20.8734 196.351C20.8748 196.499 18.9398 196.629 16.5514 196.64L6.5719 196.689Z" fill="#641414"/>
<path d="M6.41229 179.25C4.02396 179.262 2.08673 179.151 2.08537 179.002L2.00249 169.949C2.00114 169.8 3.93616 169.67 6.3245 169.659L16.304 169.61C18.6924 169.599 20.6296 169.709 20.631 169.858L20.7138 178.912C20.7152 179.06 18.7802 179.19 16.3918 179.202L6.41229 179.25Z" fill="#641414"/>
<path d="M5.81589 173.149C3.72609 173.159 2.03168 173.135 2.03131 173.094L2.00871 170.625C2.00834 170.585 3.70215 170.544 5.79194 170.533L14.524 170.491C16.6138 170.481 18.3082 170.505 18.3086 170.546L18.3312 173.015C18.3316 173.055 16.6378 173.096 14.548 173.107L5.81589 173.149Z" fill="#A22A2A"/>
<path d="M5.9755 190.588C3.8857 190.598 2.19129 190.574 2.19092 190.533L2.16832 188.064C2.16795 188.023 3.86176 187.982 5.95155 187.972L14.6836 187.93C16.7734 187.919 18.4678 187.944 18.4682 187.984L18.4908 190.454C18.4912 190.494 16.7974 190.535 14.7076 190.545L5.9755 190.588Z" fill="#A22A2A"/>
<path d="M6.13504 208.027C4.04525 208.037 2.35083 208.012 2.35046 207.972L2.32786 205.503C2.32749 205.462 4.0213 205.421 6.1111 205.411L14.8432 205.368C16.933 205.358 18.6274 205.383 18.6278 205.423L18.6504 207.893C18.6507 207.933 16.9569 207.974 14.8671 207.984L6.13504 208.027Z" fill="#A22A2A"/>
<ellipse cx="90.0404" cy="66.6159" rx="39.9107" ry="40.9822" transform="rotate(-0.382501 90.0404 66.6159)" fill="#948E8E"/>
<ellipse cx="90.4591" cy="65.7411" rx="33.542" ry="34.0065" transform="rotate(-0.382501 90.4591 65.7411)" fill="#25B4C8"/>
<ellipse cx="86.6176" cy="62.7148" rx="27.1733" ry="27.4668" transform="rotate(-0.382501 86.6176 62.7148)" fill="#02CEEA"/>
<ellipse cx="78.9114" cy="53.1745" rx="13.5866" ry="13.5154" transform="rotate(-0.382501 78.9114 53.1745)" fill="#00E0FF"/>
<ellipse cx="190.121" cy="24.9798" rx="6.10192" ry="6.26573" transform="rotate(-0.382501 190.121 24.9798)" fill="#1BB003"/>
<ellipse cx="154.731" cy="25.2161" rx="6.10192" ry="6.26573" transform="rotate(-0.382501 154.731 25.2161)" fill="#FF0000"/>
<ellipse cx="152.888" cy="23.3486" rx="3.05096" ry="3.13287" transform="rotate(-0.382501 152.888 23.3486)" fill="#FE4343"/>
<ellipse cx="172.426" cy="25.098" rx="6.10192" ry="6.26573" transform="rotate(-0.382501 172.426 25.098)" fill="#FFE606"/>
<ellipse cx="170.583" cy="23.2305" rx="3.05096" ry="3.13287" transform="rotate(-0.382501 170.583 23.2305)" fill="#FAEC6E"/>
<ellipse cx="188.888" cy="23.1083" rx="3.05096" ry="3.13287" transform="rotate(-0.382501 188.888 23.1083)" fill="#42F026"/>
<g opacity="0.5" filter="url(#filter1_d_6_362)">
<rect width="68.413" height="1.7329" transform="matrix(0.6969 -0.717168 0.768197 0.640213 168.044 122.585)" fill="#641414"/>
</g>
<g opacity="0.5" filter="url(#filter2_d_6_362)">
<rect width="165.095" height="1.6582" transform="matrix(-0.999982 0.00602059 -0.00740242 -0.999973 169.7 123.498)" fill="#641414"/>
</g>
<g opacity="0.5" filter="url(#filter3_d_6_362)">
<path d="M386.75 74.2216L215.642 75.2518L215.63 73.5937L386.737 72.5635L386.75 74.2216Z" fill="#641414"/>
</g>
<g opacity="0.5" filter="url(#filter4_d_6_362)">
<rect width="67.7493" height="1.71246" transform="matrix(-0.70084 -0.713318 -0.751535 0.659693 640.52 118.314)" fill="#641414"/>
</g>
<g opacity="0.5" filter="url(#filter5_d_6_362)">
<rect width="161.78" height="1.65819" transform="matrix(0.999955 -0.0094981 -0.00838827 -0.999965 638.912 119.252)" fill="#641414"/>
</g>
<g opacity="0.5" filter="url(#filter6_d_6_362)">
<path d="M425.475 73.3085L593.143 71.7159L593.129 70.0578L425.461 71.6504L425.475 73.3085Z" fill="#641414"/>
</g>
<rect x="385.537" y="63.7712" width="39.0616" height="580.726" transform="rotate(-0.382501 385.537 63.7712)" fill="#B82424"/>
<rect x="394.884" y="64.5808" width="5.09499" height="579.854" transform="rotate(-0.382501 394.884 64.5808)" fill="#D24D4D"/>
<rect x="389.789" y="64.6148" width="5.09499" height="579.854" transform="rotate(-0.382501 389.789 64.6148)" fill="#A42424"/>
<rect x="413.565" y="64.4561" width="9.34081" height="579.854" transform="rotate(-0.382501 413.565 64.4561)" fill="#A42424"/>
<rect x="417.811" y="64.4277" width="6.79331" height="579.854" transform="rotate(-0.382501 417.811 64.4277)" fill="#981E1E"/>
<rect x="387.241" y="64.6318" width="5.09499" height="579.854" transform="rotate(-0.382501 387.241 64.6318)" fill="#981E1E"/>
<rect width="39.0616" height="1.74392" rx="0.871961" transform="matrix(0.999978 -0.00667585 -0.00667585 -0.999978 389.141 603.503)" fill="#AB7373"/>
<rect x="0.43306" y="-0.438881" width="38.1896" height="0.871961" rx="0.43598" transform="matrix(0.999978 -0.00667585 -0.00667585 -0.999978 389.138 602.628)" stroke="black" stroke-opacity="0.01" stroke-width="0.871961"/>
<rect x="386.254" y="95.4209" width="37.9531" height="2.52819" transform="rotate(-0.382501 386.254 95.4209)" fill="#AB7373"/>
<circle cx="661.665" cy="478.228" r="25.8995" transform="rotate(-0.382501 661.665 478.228)" fill="#948E8E"/>
<circle cx="661.958" cy="478.517" r="22.6985" transform="rotate(-0.382501 661.958 478.517)" fill="#EC9F0B"/>
<circle cx="658.234" cy="473.156" r="15.7095" transform="rotate(-0.382501 658.234 473.156)" fill="#FFB72C"/>
<circle cx="653.533" cy="468.516" r="8.49164" transform="rotate(-0.382501 653.533 468.516)" fill="#EAB754"/>
<circle cx="650.114" cy="465.142" r="3.39666" transform="rotate(-0.382501 650.114 465.142)" fill="#F1CF76"/>
<rect width="36.5141" height="4.24582" rx="2.12291" transform="matrix(0.999978 -0.00667585 -0.00667585 -0.999978 618.497 435.632)" fill="#FF0000"/>
<rect x="1.05435" y="-1.06852" width="34.3912" height="2.12291" rx="1.06146" transform="matrix(0.999978 -0.00667585 -0.00667585 -0.999978 618.49 433.502)" stroke="black" stroke-opacity="0.01" stroke-width="2.12291"/>
<rect width="36.5141" height="4.24582" rx="2.12291" transform="matrix(0.999978 -0.00667585 -0.00667585 -0.999978 671.144 435.281)" fill="#FF0000"/>
<rect x="1.05435" y="-1.06852" width="34.3912" height="2.12291" rx="1.06146" transform="matrix(0.999978 -0.00667585 -0.00667585 -0.999978 671.137 433.151)" stroke="black" stroke-opacity="0.01" stroke-width="2.12291"/>
<rect width="28.8716" height="0.849164" rx="0.424582" transform="matrix(0.999978 -0.00667585 -0.00667585 -0.999978 620.178 433.073)" fill="#FD8A8A"/>
<rect x="0.210869" y="-0.213704" width="28.447" height="0.424582" rx="0.212291" transform="matrix(0.999978 -0.00667585 -0.00667585 -0.999978 620.177 432.647)" stroke="black" stroke-opacity="0.01" stroke-width="0.424582"/>
<rect width="28.8716" height="0.849164" rx="0.424582" transform="matrix(0.999978 -0.00667585 -0.00667585 -0.999978 672.825 432.722)" fill="#FD8A8A"/>
<rect x="0.210869" y="-0.213704" width="28.447" height="0.424582" rx="0.212291" transform="matrix(0.999978 -0.00667585 -0.00667585 -0.999978 672.824 432.296)" stroke="black" stroke-opacity="0.01" stroke-width="0.424582"/>
<path d="M277.231 570.383C272.813 570.413 269.207 566.855 269.178 562.437L268.792 504.561C268.762 500.142 272.32 496.537 276.738 496.507L282.571 496.468C286.989 496.439 290.595 499.997 290.624 504.415L291.01 562.291C291.04 566.709 287.482 570.315 283.064 570.344L277.231 570.383Z" fill="#252538"/>
<path d="M277.231 570.383C272.813 570.413 269.207 566.855 269.178 562.437L268.792 504.561C268.762 500.142 272.32 496.537 276.738 496.507L282.571 496.468C286.989 496.439 290.595 499.997 290.624 504.415L291.01 562.291C291.04 566.709 287.482 570.315 283.064 570.344L277.231 570.383Z" stroke="#252538"/>
<defs>
<filter id="filter0_i_6_362" x="2.05322" y="0.0532227" width="401.145" height="658.4" filterUnits="userSpaceOnUse" color-interpolation-filters="sRGB">
<feFlood flood-opacity="0" result="BackgroundImageFix"/>
<feBlend mode="normal" in="SourceGraphic" in2="BackgroundImageFix" result="shape"/>
<feColorMatrix in="SourceAlpha" type="matrix" values="0 0 0 0 0 0 0 0 0 0 0 0 0 0 0 0 0 0 127 0" result="hardAlpha"/>
<feOffset dy="4"/>
<feGaussianBlur stdDeviation="2"/>
<feComposite in2="hardAlpha" operator="arithmetic" k2="-1" k3="1"/>
<feColorMatrix type="matrix" values="0 0 0 0 0 0 0 0 0 0 0 0 0 0 0 0 0 0 0.25 0"/>
<feBlend mode="normal" in2="shape" result="effect1_innerShadow_6_362"/>
</filter>
<filter id="filter1_d_6_362" x="164.044" y="73.5214" width="57.0082" height="58.173" filterUnits="userSpaceOnUse" color-interpolation-filters="sRGB">
<feFlood flood-opacity="0" result="BackgroundImageFix"/>
<feColorMatrix in="SourceAlpha" type="matrix" values="0 0 0 0 0 0 0 0 0 0 0 0 0 0 0 0 0 0 127 0" result="hardAlpha"/>
<feOffset dy="4"/>
<feGaussianBlur stdDeviation="2"/>
<feComposite in2="hardAlpha" operator="out"/>
<feColorMatrix type="matrix" values="0 0 0 0 0 0 0 0 0 0 0 0 0 0 0 0 0 0 0.25 0"/>
<feBlend mode="normal" in2="BackgroundImageFix" result="effect1_dropShadow_6_362"/>
<feBlend mode="normal" in="SourceGraphic" in2="effect1_dropShadow_6_362" result="shape"/>
</filter>
<filter id="filter2_d_6_362" x="0.595764" y="121.84" width="173.104" height="10.6521" filterUnits="userSpaceOnUse" color-interpolation-filters="sRGB">
<feFlood flood-opacity="0" result="BackgroundImageFix"/>
<feColorMatrix in="SourceAlpha" type="matrix" values="0 0 0 0 0 0 0 0 0 0 0 0 0 0 0 0 0 0 127 0" result="hardAlpha"/>
<feOffset dy="4"/>
<feGaussianBlur stdDeviation="2"/>
<feComposite in2="hardAlpha" operator="out"/>
<feColorMatrix type="matrix" values="0 0 0 0 0 0 0 0 0 0 0 0 0 0 0 0 0 0 0.25 0"/>
<feBlend mode="normal" in2="BackgroundImageFix" result="effect1_dropShadow_6_362"/>
<feBlend mode="normal" in="SourceGraphic" in2="effect1_dropShadow_6_362" result="shape"/>
</filter>
<filter id="filter3_d_6_362" x="211.63" y="72.5635" width="179.12" height="10.6883" filterUnits="userSpaceOnUse" color-interpolation-filters="sRGB">
<feFlood flood-opacity="0" result="BackgroundImageFix"/>
<feColorMatrix in="SourceAlpha" type="matrix" values="0 0 0 0 0 0 0 0 0 0 0 0 0 0 0 0 0 0 127 0" result="hardAlpha"/>
<feOffset dy="4"/>
<feGaussianBlur stdDeviation="2"/>
<feComposite in2="hardAlpha" operator="out"/>
<feColorMatrix type="matrix" values="0 0 0 0 0 0 0 0 0 0 0 0 0 0 0 0 0 0 0.25 0"/>
<feBlend mode="normal" in2="BackgroundImageFix" result="effect1_dropShadow_6_362"/>
<feBlend mode="normal" in="SourceGraphic" in2="effect1_dropShadow_6_362" result="shape"/>
</filter>
<filter id="filter4_d_6_362" x="587.751" y="69.9869" width="56.7684" height="57.4565" filterUnits="userSpaceOnUse" color-interpolation-filters="sRGB">
<feFlood flood-opacity="0" result="BackgroundImageFix"/>
<feColorMatrix in="SourceAlpha" type="matrix" values="0 0 0 0 0 0 0 0 0 0 0 0 0 0 0 0 0 0 127 0" result="hardAlpha"/>
<feOffset dy="4"/>
<feGaussianBlur stdDeviation="2"/>
<feComposite in2="hardAlpha" operator="out"/>
<feColorMatrix type="matrix" values="0 0 0 0 0 0 0 0 0 0 0 0 0 0 0 0 0 0 0.25 0"/>
<feBlend mode="normal" in2="BackgroundImageFix" result="effect1_dropShadow_6_362"/>
<feBlend mode="normal" in="SourceGraphic" in2="effect1_dropShadow_6_362" result="shape"/>
</filter>
<filter id="filter5_d_6_362" x="634.898" y="116.057" width="169.787" height="11.1947" filterUnits="userSpaceOnUse" color-interpolation-filters="sRGB">
<feFlood flood-opacity="0" result="BackgroundImageFix"/>
<feColorMatrix in="SourceAlpha" type="matrix" values="0 0 0 0 0 0 0 0 0 0 0 0 0 0 0 0 0 0 127 0" result="hardAlpha"/>
<feOffset dy="4"/>
<feGaussianBlur stdDeviation="2"/>
<feComposite in2="hardAlpha" operator="out"/>
<feColorMatrix type="matrix" values="0 0 0 0 0 0 0 0 0 0 0 0 0 0 0 0 0 0 0.25 0"/>
<feBlend mode="normal" in2="BackgroundImageFix" result="effect1_dropShadow_6_362"/>
<feBlend mode="normal" in="SourceGraphic" in2="effect1_dropShadow_6_362" result="shape"/>
</filter>
<filter id="filter6_d_6_362" x="421.461" y="70.0578" width="175.682" height="11.2507" filterUnits="userSpaceOnUse" color-interpolation-filters="sRGB">
<feFlood flood-opacity="0" result="BackgroundImageFix"/>
<feColorMatrix in="SourceAlpha" type="matrix" values="0 0 0 0 0 0 0 0 0 0 0 0 0 0 0 0 0 0 127 0" result="hardAlpha"/>
<feOffset dy="4"/>
<feGaussianBlur stdDeviation="2"/>
<feComposite in2="hardAlpha" operator="out"/>
<feColorMatrix type="matrix" values="0 0 0 0 0 0 0 0 0 0 0 0 0 0 0 0 0 0 0.25 0"/>
<feBlend mode="normal" in2="BackgroundImageFix" result="effect1_dropShadow_6_362"/>
<feBlend mode="normal" in="SourceGraphic" in2="effect1_dropShadow_6_362" result="shape"/>
</filter>
</defs>
</svg>
