<svg width="932" height="765" viewBox="0 0 932 765" fill="none" xmlns="http://www.w3.org/2000/svg">
<g id="Group 30">
<rect id="Rectangle 5" y="166.349" width="928" height="598.651" fill="#A81313"/>
<path id="Vector" d="M0 91.2976C0 40.8753 5.74504 0 12.8319 0H445.168C452.255 0 458 40.8753 458 91.2976V301.984C458 352.407 452.255 393.282 445.168 393.282H12.8319C5.74503 393.282 0 352.407 0 301.984V91.2976Z" fill="#A81313"/>
<g id="Group 8">
<path id="Vector_2" d="M441.333 96.4249C443.225 84.7412 450.861 76.3118 458.389 77.5973L917.639 156.021C925.167 157.306 929.736 167.82 927.844 179.503L919.937 228.323C918.045 240.007 910.408 248.436 902.88 247.151L443.631 168.727C436.103 167.442 431.534 156.928 433.426 145.244L441.333 96.4249Z" fill="#A81313"/>
</g>
<g id="Group 9">
<path id="Vector_3" d="M842 754.511C842 752.932 842.146 751.651 842.326 751.651H853.321C853.501 751.651 853.647 752.932 853.647 754.511V761.113C853.647 762.692 853.501 763.973 853.321 763.973H842.326C842.146 763.973 842 762.692 842 761.113V754.511Z" fill="#641414"/>
<path id="Vector_4" d="M863.176 754.511C863.176 752.932 863.323 751.651 863.503 751.651H874.497C874.677 751.651 874.824 752.932 874.824 754.511V761.113C874.824 762.692 874.677 763.973 874.497 763.973H863.503C863.323 763.973 863.176 762.692 863.176 761.113V754.511Z" fill="#641414"/>
<path id="Vector_5" d="M884.353 754.511C884.353 752.932 884.499 751.651 884.679 751.651H895.674C895.854 751.651 896 752.932 896 754.511V761.113C896 762.692 895.854 763.973 895.674 763.973H884.679C884.499 763.973 884.353 762.692 884.353 761.113V754.511Z" fill="#641414"/>
</g>
<g id="Group 10">
<path id="Vector_6" d="M3.71429 681.826C1.66294 681.826 0 681.684 0 681.509L0 670.847C0 670.672 1.66294 670.53 3.71429 670.53H12.2857C14.3371 670.53 16 670.672 16 670.847L16 681.509C16 681.684 14.3371 681.826 12.2857 681.826H3.71429Z" fill="#641414"/>
<path id="Vector_7" d="M3.71429 661.289C1.66294 661.289 0 661.147 0 660.972L0 650.31C0 650.135 1.66294 649.993 3.71429 649.993H12.2857C14.3371 649.993 16 650.135 16 650.31L16 660.972C16 661.147 14.3371 661.289 12.2857 661.289H3.71429Z" fill="#641414"/>
<path id="Vector_8" d="M3.71429 640.752C1.66294 640.752 0 640.61 0 640.435L0 629.773C0 629.598 1.66294 629.456 3.71429 629.456H12.2857C14.3371 629.456 16 629.598 16 629.773L16 640.435C16 640.61 14.3371 640.752 12.2857 640.752H3.71429Z" fill="#641414"/>
</g>
<path id="Vector_9" d="M3.25 633.564C1.45507 633.564 0 633.525 0 633.477L0 630.57C0 630.522 1.45507 630.483 3.25 630.483H10.75C12.5449 630.483 14 630.522 14 630.57V633.477C14 633.525 12.5449 633.564 10.75 633.564H3.25Z" fill="#A22A2A"/>
<path id="Vector_10" d="M3.25 654.101C1.45507 654.101 0 654.062 0 654.014L0 651.106C0 651.059 1.45507 651.02 3.25 651.02H10.75C12.5449 651.02 14 651.059 14 651.106V654.014C14 654.062 12.5449 654.101 10.75 654.101H3.25Z" fill="#A22A2A"/>
<path id="Vector_11" d="M3.25 674.638C1.45507 674.638 0 674.599 0 674.551L0 671.643C0 671.596 1.45507 671.557 3.25 671.557H10.75C12.5449 671.557 14 671.596 14 671.643V674.551C14 674.599 12.5449 674.638 10.75 674.638H3.25Z" fill="#A22A2A"/>
<g id="Group 25">
<path id="Vector_12" d="M915.714 324.483C913.663 324.483 912 324.342 912 324.167V313.504C912 313.33 913.663 313.188 915.714 313.188H924.286C926.337 313.188 928 313.33 928 313.504V324.167C928 324.342 926.337 324.483 924.286 324.483H915.714Z" fill="#641414"/>
<path id="Vector_13" d="M915.714 303.946C913.663 303.946 912 303.805 912 303.63V292.967C912 292.793 913.663 292.651 915.714 292.651H924.286C926.337 292.651 928 292.793 928 292.967V303.63C928 303.805 926.337 303.946 924.286 303.946H915.714Z" fill="#641414"/>
<path id="Vector_14" d="M915.714 283.409C913.663 283.409 912 283.268 912 283.093V272.431C912 272.256 913.663 272.114 915.714 272.114H924.286C926.337 272.114 928 272.256 928 272.431V283.093C928 283.268 926.337 283.409 924.286 283.409H915.714Z" fill="#641414"/>
</g>
<g id="Group 29">
<ellipse id="Ellipse 2" cx="96" cy="82.1477" rx="47" ry="48.2617" fill="#948E8E"/>
<ellipse id="Ellipse 9" cx="231" cy="44.1544" rx="10" ry="10.2685" fill="#1BB003"/>
<ellipse id="Ellipse 10" cx="173" cy="44.1544" rx="10" ry="10.2685" fill="#FF0000"/>
<ellipse id="Ellipse 23" cx="170" cy="41.0738" rx="5" ry="5.13423" fill="#FE4343"/>
<ellipse id="Ellipse 11" cx="202" cy="44.1544" rx="10" ry="10.2685" fill="#FFE606"/>
<ellipse id="Ellipse 8" cx="96.5" cy="81.1208" rx="39.5" ry="40.047" fill="#25B4C8"/>
<ellipse id="Ellipse 21" cx="92" cy="77.5269" rx="32" ry="32.3456" fill="#02CEEA"/>
<ellipse id="Ellipse 22" cx="83" cy="66.2315" rx="16" ry="15.9161" fill="#00E0FF"/>
<ellipse id="Ellipse 24" cx="199" cy="41.0738" rx="5" ry="5.13423" fill="#FAEC6E"/>
<ellipse id="Ellipse 25" cx="229" cy="41.0738" rx="5" ry="5.13423" fill="#42F026"/>
</g>
<rect id="Rectangle 7" x="444" y="81.1208" width="46" height="683.879" fill="#B82424"/>
<rect id="Rectangle 63" x="455" y="82.1476" width="6" height="682.852" fill="#D24D4D"/>
<rect id="Rectangle 64" x="449" y="82.1476" width="6" height="682.852" fill="#A42424"/>
<rect id="Rectangle 65" x="477" y="82.1476" width="11" height="682.852" fill="#A42424"/>
<rect id="Rectangle 66" x="482" y="82.1476" width="8" height="682.852" fill="#981E1E"/>
<rect id="Rectangle 67" x="446" y="82.1476" width="6" height="682.852" fill="#981E1E"/>
<g id="Rectangle 57">
<rect width="46" height="1.02685" rx="0.513423" transform="matrix(1 0 0 -1 444 119.114)" fill="#AB7373"/>
<rect x="0.256711" y="-0.256711" width="45.4866" height="0.513423" rx="0.256711" transform="matrix(1 0 0 -1 444 118.601)" stroke="black" stroke-opacity="0.01" stroke-width="0.513423"/>
</g>
<g id="Rectangle 62">
<rect width="46" height="2.05369" rx="1.02685" transform="matrix(1 0 0 -1 444 716.738)" fill="#AB7373"/>
<rect x="0.513423" y="-0.513423" width="44.9732" height="1.02685" rx="0.513423" transform="matrix(1 0 0 -1 444 715.711)" stroke="black" stroke-opacity="0.01" stroke-width="1.02685"/>
</g>
<g id="Group 22">
<g id="Group 18">
<rect id="Rectangle 63_2" opacity="0.5" width="85.1879" height="2.13455" transform="matrix(0.664088 -0.747655 0.72988 0.683575 186.009 146.772)" fill="#641414"/>
</g>
</g>
<g id="Group 23">
<g id="Group 18_2">
<rect id="Rectangle 63_3" opacity="0.5" x="187.95" y="147.977" width="187.95" height="2.16527" transform="rotate(-180 187.95 147.977)" fill="#641414"/>
</g>
</g>
<g id="Group 24">
<g id="Group 18_3">
<rect id="Rectangle 63_4" opacity="0.5" x="444" y="85.3397" width="202" height="2.16527" transform="rotate(-180 444 85.3397)" fill="#641414"/>
</g>
</g>
</g>
</svg>
